M48
;Layer_Color=9474304
;FILE_FORMAT=2:5
INCH,LZ
;TYPE=PLATED
T1F00S00C0.01181
T2F00S00C0.01968
T5F00S00C0.03543
T6F00S00C0.03937
T7F00S00C0.04331
T8F00S00C0.05000
T9F00S00C0.05118
T10F00S00C0.05906
%
T01
X0091732Y0235433
X0098032
X0114961Y0263779
X0119685Y0267717
X0137795Y0263779
X0168504Y0147244
X0185767Y0147638
X018937Y0154331
X0181102Y0155512
T02
X0167323Y0123228
X0185827Y0126378
X0211811Y0129134
X0153937Y0120866
X01
X0107087Y0084646
X0074803Y0100394
X0056437Y0097894
X0054331Y0106693
X003937Y0119685
X0008465Y0118307
X004685Y0050394
X0047638Y0026772
X0067716Y0154331
X0087795Y0156299
X0108268
X010748Y0184843
X0118504Y0196063
X0120472Y0204724
X0113779Y0203937
X0098032Y0214961
X0086614Y022559
X0075984Y0222835
X0079134Y0234252
X0081102Y0240551
X0076772Y025315
X0091339Y0251575
X0094095Y0245276
X0096641Y0263173
X0103543Y0258661
X0103937Y026811
X0105118Y0275984
X0114961Y0287008
X0120472Y0283465
X0131496Y0279134
X0133071Y0272047
X0143307Y0266929
X0149213Y0285827
X0149606Y0215354
X0152756Y0208661
X0148819Y020315
X0141732Y0197835
X0082677Y0196457
X005315Y0261417
X0056693Y0266535
X0061811Y0272835
X004252Y0269488
X0034646Y026811
X0027559Y0269291
X0016929Y027874
X0005906
X0005118Y0271654
X0005512Y0264173
X0158268Y0270079
X0159449Y0251969
X0160236Y0235433
X016811Y0235039
X0172835Y0212992
X0170472Y0205709
X0193307Y018937
X0205394Y0172559
X0211811Y0142126
X0177137Y0139115
X0170079Y0162992
X0210039Y0220079
X020315Y0245669
X0205906Y0272835
X0166535Y0281496
Y028937
X0163386Y0303543
X0159449Y031063
X0173622Y0308661
X0170079Y0330315
X0155905Y0327165
X0201575Y0322441
X0135039Y0315748
X0116535Y0318012
X0114173Y0329528
X011063Y0305512
X0111811Y0293307
X0084449Y0302362
X0083858Y0310236
X0067716Y0312992
X006811Y0299012
X0150394Y0291732
T05
X023189Y0091339
Y0101339
Y0111339
Y0121339
Y0131339
Y0141339
Y0151339
Y0161339
Y0171339
Y0181339
T06
X0154803Y0172559
Y0182559
X0087795Y0262819
Y0272835
X0074016
Y0262819
X0164803Y0182559
Y0172559
X0174803
Y0182559
X0184803
Y0172559
X0194803Y0172559
Y0182559
T07
X0164567Y0026378
Y003622
Y0046063
X0190157Y0071653
X02
X0209842
X0220866Y0049488
X0238583
Y0022953
X0220866
T08
X0058268Y0292362
Y0302362
Y0312362
X0127008Y0325197
X0137008
X0147008
T09
X0179331Y001063
X0219685
Y0060827
X0179331
T10
X0227165Y0246772
Y0276772
M30
